<?xml version="1.0" encoding="UTF-8"?><svg xmlns="http://www.w3.org/2000/svg" xmlns:xlink="http://www.w3.org/1999/xlink" height="500.0" preserveAspectRatio="xMidYMid meet" version="1.0" viewBox="0.0 0.0 1866.8 500.0" width="1866.8" zoomAndPan="magnify"><g><g id="change1_1"><path d="M1655.2,491.7H281.7c-111.9,0-203.6-91.7-203.6-203.6l0,0c0-112.1,91.7-203.6,203.6-203.6H1655 c112.1,0,203.8,91.5,203.8,203.6l0,0C1858.8,400.1,1767.1,491.7,1655.2,491.7z" fill="#edd136"/></g><path d="M138.5 432.3L57.2 343.8" fill="none"/><path d="M300.4 491.7L230.3 415.6" fill="none"/><path d="M419.2 491.7L349.3 415.6" fill="none"/><path d="M538.2 491.7L468.1 415.6" fill="none"/><path d="M657.2 491.7L587.1 415.6" fill="none"/><path d="M776 491.7L706.1 415.6" fill="none"/><path d="M895 491.7L824.9 415.6" fill="none"/><path d="M1013.8 491.7L943.9 415.6" fill="none"/><path d="M1132.8 491.7L1062.9 415.6" fill="none"/><path d="M1251.8 491.7L1181.7 415.6" fill="none"/><path d="M1368.8 491.7L1298.8 415.6" fill="none"/><path d="M1485.8 491.7L1415.8 415.6" fill="none"/><path d="M1603.5 491.7L1533.4 415.6" fill="none"/><path d="M1721.1 480.7L1651.1 404.6" fill="none"/><path d="M1799.2 431.7L1729.3 355.6" fill="none"/><path d="M1846.8 356.6L1776.8 280.5" fill="none"/><path d="M1858 271L1788 194.7" fill="none"/><g><path d="M1808.8 154.8L1733.7 73" fill="none"/><g id="change2_1"><path d="M1815,149.3l0.1-0.1L1740,67.3l-12.3,11.3l15.3,16.7c-26.8-12.3-56.6-19.2-88-19.2H281.7 c-116.8,0-211.8,95.2-211.8,212c0,24.5,4.2,48.1,11.9,70l-18.3-19.9l-12.3,11.3l66,71.9C156,469.3,215.3,500,281.7,500h1373.5 c116.8,0,211.6-95.2,211.6-212C1866.8,235,1847.3,186.5,1815,149.3z M1607.3,483.5l-67.7-73.7l-12.3,11.3l57.3,62.4h-95.2 l-67.6-73.6l-12.3,11.3l57.2,62.3h-94.1l-67.7-73.8l-12.3,11.3l57.4,62.4h-94.4l-67.7-73.7l-12.3,11.3l57.3,62.4h-96.3l-67.7-73.7 l-12.3,11.3l57.3,62.4h-96.3L950,409.8l-12.3,11.3l57.2,62.3h-96.1l-67.7-73.7l-12.3,11.3l57.3,62.4h-96.3l-67.7-73.7l-12.3,11.3 l57.3,62.4h-96.3l-67.6-73.6l-12.3,11.3l57.2,62.3H542l-67.7-73.7L462,421.1l57.3,62.4H423l-67.6-73.7l-12.3,11.3l57.3,62.3h-96 l-67.7-73.7L224.2,421l57.3,62.4c-53.5-0.1-102-21.7-137.2-56.7l0.2-0.2l-15.7-17c-26.5-33.3-42.4-75.5-42.4-121.4 c0-107.8,87.5-195.3,195.1-195.3h1373.5c54.4,0,103.6,22.3,139.1,58.2l8.6,9.4l0,0c20.6,23.9,35.6,52.8,42.8,84.6l-51.4-56 l-12.3,11.3l68,74.1c0.3,4.5,0.5,9.1,0.5,13.7c0,18.1-2.5,35.6-7.1,52.2l-60.4-65.7l-12.3,11.3l66.6,72.6 c-8.8,22.7-21.7,43.4-37.9,61.1l-63.9-69.6l-12.3,11.3l64.4,70.2c-18.4,17-40.1,30.6-64,39.6l-66.4-72.3l-12.3,11.3l61.2,66.6 c-16.3,4.4-33.4,6.8-51.1,6.8H1607.3z" fill="#040000"/></g></g></g><g><g id="change3_1"><path d="M1585.4,415.6H211.8C99.9,415.6,8.3,324,8.3,212l0,0C8.3,99.9,99.9,8.3,211.8,8.3h1373.5 c111.9,0,203.6,91.7,203.6,203.6l0,0C1788.9,324,1697.3,415.6,1585.4,415.6z" fill="#f4f4f4"/></g><g id="change4_1"><path d="M1585.4,0H527.5H211.8C95,0,0,94.8,0,211.8s95,212,211.8,212h315.7h0.2h1057.6c116.8,0,211.8-95.2,211.8-212 S1702.2,0,1585.4,0z M511.2,407.2H212c-107.8,0-195.3-87.7-195.3-195.3S104.2,16.7,211.8,16.7h299.4l16.3-0.2h1057.8 c107.8,0,195.3,87.7,195.3,195.3c0,107.8-87.7,195.3-195.3,195.3H527.5H511.2z" fill="#3a3a3a"/></g></g></svg>